<?xml version="1.0" encoding="UTF-8" standalone="no"?>
<svg
   viewBox="0 0 1147 465"
   class="fill-current w-16 lg:w-24"
   id=""
   version="1.1"
   sodipodi:docname="logo.svg"
   inkscape:version="1.4 (86a8ad7, 2024-10-11)"
   xmlns:inkscape="http://www.inkscape.org/namespaces/inkscape"
   xmlns:sodipodi="http://sodipodi.sourceforge.net/DTD/sodipodi-0.dtd"
   xmlns="http://www.w3.org/2000/svg"
   xmlns:svg="http://www.w3.org/2000/svg">
  <defs
     id="defs1" />
  <sodipodi:namedview
     id="namedview1"
     pagecolor="#ffffff"
     bordercolor="#000000"
     borderopacity="0.25"
     inkscape:showpageshadow="2"
     inkscape:pageopacity="0.0"
     inkscape:pagecheckerboard="0"
     inkscape:deskcolor="#d1d1d1"
     inkscape:zoom="2.7907585"
     inkscape:cx="573.67916"
     inkscape:cy="232.55326"
     inkscape:window-width="3360"
     inkscape:window-height="1766"
     inkscape:window-x="627"
     inkscape:window-y="-12"
     inkscape:window-maximized="1"
     inkscape:current-layer="" />
  <path
     fill-rule="evenodd"
     clip-rule="evenodd"
     d="M953.967 246.07C953.931 246.065 953.898 246.052 953.867 246.034C953.838 246.017 953.811 245.995 953.787 245.97C738.097 21.6404 492.087 7.75044 292.847 140.02C268.397 156.26 244.637 174.7 221.737 195.22L140.367 195.16C157.157 175.26 174.777 156.91 193.077 140.02C426.947 -75.8196 775.527 -45.1295 1010.25 258.65L953.967 246.07ZM1137.83 255.59L1113.41 231.17C1107.98 225.74 1100.6 222.69 1092.92 222.69H1069.73H1024C1024 222.69 1024.06 233.36 1024.16 234.34V234.36C1025.62 249.98 1038.02 262.41 1053.62 263.93C1054.64 264.04 1069.72 264.1 1069.72 264.1H1075.76C1083.44 264.1 1090.82 267.15 1096.26 272.58L1096.42 272.76C1101.85 278.19 1104.92 285.56 1104.92 293.24V324.04H1104.91V346.88V346.99C1104.91 347.98 1104.97 348.97 1105.06 349.95C1106.52 365.62 1118.98 378.09 1134.65 379.55H1134.67C1135.65 379.65 1137.75 379.7 1137.75 379.7H1146.31V324.03V276.08C1146.31 268.41 1143.26 261.04 1137.83 255.59ZM1098.24 398.751C1091.2 383.201 1077.36 359.491 1077.36 359.491C1077.36 359.491 1033.62 349.821 1033.1 349.841C1033.1 349.841 1048.37 375.491 1056.21 388.271H1040.67V388.281H1009.85C1002.17 388.281 994.799 385.211 989.369 379.781L989.189 379.621C983.759 374.191 980.709 366.811 980.709 359.131V305.361C980.709 304.321 980.639 303.291 980.529 302.271C979.009 286.671 966.579 274.271 950.959 272.821H950.939C949.959 272.721 947.849 272.671 947.849 272.671H939.289V328.341V376.291C939.289 383.971 942.339 391.351 947.769 396.781L972.189 421.201C977.639 426.631 984.999 429.681 992.679 429.681H1040.64H1076.88L1077.07 429.931C1081.34 436.551 1093.57 464.681 1093.57 464.681C1093.57 464.681 1102.32 461.101 1104.57 458.971C1116.21 447.971 1116.06 436.771 1111.39 425.841C1109.76 422.006 1107.66 417.874 1105.35 413.327L1105.35 413.325C1103.1 408.896 1100.65 404.074 1098.24 398.751ZM601.348 231.501C601.348 239.221 604.418 246.641 609.878 252.111C615.358 257.57 622.758 260.651 630.488 260.651H656.668C672.758 260.651 685.808 273.681 685.808 289.791V401.741C685.808 409.481 688.878 416.881 694.338 422.351L694.348 422.371C699.808 427.831 707.888 430.901 715.618 430.901H727.648V289.801C728.358 273.7 741.408 260.661 757.498 260.661H780.328C788.068 260.661 795.468 257.581 800.938 252.121H800.958C806.418 246.661 809.488 239.241 809.488 231.511V222.771H601.348V231.501ZM621.718 389.421C637.408 390.941 649.868 403.441 651.338 419.151C651.338 419.156 651.338 419.158 651.339 419.161C651.341 419.163 651.343 419.166 651.348 419.171C651.448 420.151 651.508 421.141 651.508 422.141V422.271V430.881H595.538H538.708C530.978 430.881 523.558 427.811 518.098 422.351L493.538 397.791C488.078 392.311 485.008 384.901 485.008 377.181V279.111V234.751V223.141H493.618H493.638C494.688 223.141 495.718 223.201 496.738 223.301C512.498 224.771 525.028 237.301 526.488 253.061C526.588 254.051 526.648 256.151 526.648 256.151V279.121H526.628V359.951C526.628 367.671 529.708 375.081 535.168 380.541L535.328 380.721C540.808 386.181 548.218 389.251 555.938 389.251H595.528H618.498H618.608H618.628C619.658 389.251 620.698 389.311 621.718 389.421ZM175.868 314.54C170.408 309.08 162.998 306.01 155.258 306.01H69.2481C62.0981 306.01 55.1981 303.38 49.8581 298.62C46.4581 294.82 44.3981 290.46 44.1281 285.28C43.8581 280.1 46.4581 275.59 49.8581 271.77C55.1981 267.01 62.0981 264.38 69.2481 264.38L161.538 264.39H161.648C162.648 264.39 163.638 264.33 164.618 264.23C180.378 262.77 192.908 250.24 194.378 234.48C194.478 233.46 194.538 232.43 194.538 231.38V231.36V222.75H54.5181C46.7981 222.75 39.3881 225.82 33.9281 231.28L9.36812 255.84C3.88812 261.3 0.828125 268.72 0.828125 276.45V293.94C0.828125 301.66 3.89812 309.07 9.36812 314.53L33.9281 339.09C39.3881 344.57 46.7981 347.63 54.5181 347.63H140.548C147.698 347.63 154.598 350.26 159.938 355.02C163.338 358.82 165.888 364.53 165.748 368.37C165.558 373.48 163.338 378.05 159.938 381.85C154.598 386.61 147.698 389.24 140.548 389.24L12.2681 389.03V397.64V397.66C12.2681 398.71 12.3281 399.74 12.4281 400.76C13.8981 416.51 26.4281 429.04 42.1881 430.51C43.1681 430.61 45.2781 430.67 45.2781 430.67L155.258 430.88C162.998 430.88 170.398 427.81 175.868 422.35L200.428 397.79C205.888 392.31 208.958 384.91 208.958 377.18V359.7C208.958 351.98 205.888 344.57 200.428 339.09L175.868 314.54ZM870.328 223.301C871.348 223.201 873.438 223.141 873.448 223.141H882.058V279.111H882.048V374.901H882.058V397.871C882.058 397.871 881.898 400.941 881.898 400.961C880.428 416.711 867.898 429.251 852.148 430.721H852.138C851.158 430.821 849.028 430.881 849.028 430.881H840.428H840.418V374.911H840.428V279.121H840.418V256.151C840.418 256.151 840.478 254.041 840.578 253.061C842.048 237.311 854.578 224.771 870.328 223.301ZM310.846 264.38H341.826V264.39H364.796H364.906C365.906 264.39 366.896 264.33 367.876 264.23C383.636 262.77 396.166 250.24 397.636 234.48V234.45C397.736 233.47 397.796 232.48 397.796 231.49V231.36V222.75H341.826H293.606C285.886 222.75 278.476 225.82 272.996 231.28L248.436 255.84C242.976 261.3 239.906 268.72 239.906 276.45V324.66V380.63H248.516H248.646C249.646 380.63 250.636 380.57 251.616 380.47H251.636C267.336 379 279.836 366.54 281.366 350.86C281.476 349.83 281.546 348.8 281.546 347.75V293.68C281.546 285.96 284.616 278.54 290.076 273.07L290.256 272.91C295.716 267.46 303.126 264.38 310.846 264.38ZM436.32 273.17H436.34C437.06 273.089 438.397 273.041 439.059 273.017C439.297 273.008 439.447 273.003 439.45 273H448.06V328.97V377.18C448.06 384.91 444.99 392.31 439.53 397.79L414.97 422.35C409.5 427.81 402.08 430.88 394.36 430.88H346.15H290.18V422.27V422.14C290.18 421.14 290.24 420.15 290.34 419.17V419.15C291.8 403.44 304.27 390.94 319.96 389.42C320.98 389.32 322.01 389.25 323.05 389.25H323.07H323.18H346.15H377.12C384.85 389.25 392.27 386.18 397.73 380.72L397.89 380.54C403.35 375.08 406.43 367.67 406.43 359.95V328.98H406.41V306.01V305.9C406.41 304.9 406.47 303.91 406.57 302.93C408.04 287.18 420.57 274.64 436.32 273.17Z"
     id="path1"
     style="fill:#ffffff" />
</svg>
